# xmcd
#
# Track frame offsets: 
#        150
#        17390
#        27517
#        45625
#        57127
#        69400
#        79702
#        92557
#        102675
#        116830
#        130712
#        143767
#
# Disc length: 2147 seconds
#
# Revision: 3
# Processed by: cddbd v1.5.2PL0 Copyright (c) Steve Scherf et al.
# Submitted via: ExactAudioCopy v0.95b4
#
DISCID=9a08610c
DTITLE=Chris LeDoux - Sounds Of The Western Country
DYEAR=1900
DGENRE=Country
TTITLE0=Country Star
TTITLE1=A Cowboy Is
TTITLE2=Paint Me Back Home In Wyoming
TTITLE3=Littlest Cowboy Rides Again
TTITLE4=Bars Shouldn't Have Mirrors
TTITLE5=Grange Hall Dance
TTITLE6=The Yellow Stud
TTITLE7=Amarillo By Morning
TTITLE8=Our First Year
TTITLE9=Raised By The Railroad Line
TTITLE10=Lean, Mean And Hungry
TTITLE11=Night Rider's Lament
EXTD=
EXTT0=
EXTT1=
EXTT2=
EXTT3=
EXTT4=
EXTT5=
EXTT6=
EXTT7=
EXTT8=
EXTT9=
EXTT10=
EXTT11=
PLAYORDER=
